<?xml version="1.0" encoding="iso-8859-1"?>
<!-- Uploaded to: SVG Repo, www.svgrepo.com, Generator: SVG Repo Mixer Tools -->
<svg height="39px" width="39px" version="1.1" id="Layer_1" xmlns="http://www.w3.org/2000/svg" xmlns:xlink="http://www.w3.org/1999/xlink" 
	 viewBox="0 0 511.999 511.999" xml:space="preserve">
<path style="fill:#83C7C3;" d="M309.718,67.69L42.688,67.446c-20.43,0-37.049,12.823-37.049,33.253v10.734v25.869
	c0,0,270.731-0.355,270.776-0.355l-0.045-25.514l0,0l0.045,25.514c17.916-0.023,22.714-8.139,27.089-25.514l6.088-33.732
	L309.718,67.69z"/>
<path style="fill:#9AE1D3;" d="M184.694,366.029l41.085,7.038l-2.807,40.091c-17.904,14.984-36.373,29.134-55.066,42.506
	l-0.237,0.169c-14.251,10.204-34.084,6.911-44.276-7.34c-10.204-14.263-6.923-34.084,7.34-44.288
	c0.316-0.237,0.744-0.519,1.071-0.733C150.035,391.522,167.692,379.108,184.694,366.029z"/>
<path style="fill:#F9545B;" d="M412.197,51.078c11.669,3.258,18.581,15.187,15.83,26.868c-8.862,37.455-20.171,74.786-35.29,111.023
	c-15.086,36.215-34.118,71.189-56.904,103.559c-22.764,32.393-49.091,62.136-77.537,89.161
	c-11.444,10.88-23.249,21.366-35.324,31.468l-38.278-47.129c11.602-8.918,22.899-18.152,33.881-27.77
	c27.026-23.655,51.842-49.508,73.478-77.774c21.67-28.255,40.082-58.956,55.258-91.54c15.198-32.573,27.217-66.95,37.117-102.251
	C387.787,54.698,400.224,47.719,412.197,51.078z"/>
<path style="fill:#000030;" d="M510.107,84.248c-3.453-5.184-10.453-6.585-15.634-3.132c-19.65,13.09-45.979,8.559-60.213-9.829
	c-0.595-14.276-10.224-27.026-24.654-31.068c-8.691-2.434-17.813-1.341-25.68,3.08c-7.853,4.413-13.52,11.613-15.964,20.28
	c-0.007,0.024-0.014,0.048-0.02,0.072h-59.645c-0.161-0.002-0.325-0.003-0.49,0H37.049C16.62,63.651,0,80.27,0,100.698v30.461
	c0,6.227,5.048,11.275,11.275,11.275h259.457c17.927,0,35.395-13.619,39.77-31.004l6.347-25.23h44.427
	c-8.862,28.443-18.686,54.121-29.814,77.986c-15.024,32.229-33.189,62.319-53.999,89.444c-20.247,26.459-44.454,52.08-71.946,76.152
	c-10.457,9.154-21.415,18.143-32.994,27.058c-0.194,0.139-0.386,0.284-0.574,0.436c-0.029,0.024-0.06,0.048-0.089,0.073
	c-16.01,12.299-33.202,24.454-51.883,36.697c-0.436,0.288-1.009,0.676-1.448,0.992c-9.342,6.687-15.522,16.611-17.4,27.946
	c-1.88,11.337,0.77,22.726,7.455,32.063c6.685,9.347,16.608,15.529,27.945,17.409c2.38,0.395,4.765,0.59,7.129,0.59
	c8.9,0,17.555-2.76,24.922-8.032l0.247-0.175c34.725-24.846,64.688-49.371,91.598-74.971c30.284-28.781,56.861-59.352,78.986-90.85
	c22.829-32.423,42.376-67.989,58.097-105.706c12.267-29.399,22.668-60.836,31.637-95.673c22.199,16.68,53.436,18.491,77.827,2.243
	C512.157,96.43,513.559,89.43,510.107,84.248z M288.633,105.927c-1.837,7.305-10.369,13.956-17.901,13.956H22.55v-19.185
	c0-7.994,6.506-14.497,14.499-14.497h256.547L288.633,105.927z M155.726,446.488l-0.248,0.176
	c-4.446,3.182-9.868,4.441-15.258,3.548c-5.392-0.894-10.112-3.835-13.295-8.286c-3.181-4.443-4.441-9.862-3.547-15.255
	c0.894-5.393,3.835-10.116,8.28-13.296c0.012-0.009,0.024-0.018,0.036-0.026c0.198-0.142,0.461-0.32,0.654-0.446
	c15.923-10.437,30.811-20.826,44.835-31.297l24.358,29.999C187.231,423.251,172.018,434.831,155.726,446.488z M411.426,75.348
	c-9.602,40.542-20.961,76.289-34.729,109.285c-15.091,36.206-33.839,70.322-55.731,101.414
	c-21.274,30.29-46.869,59.722-76.078,87.48c-8.359,7.952-17.03,15.804-26.061,23.595l-23.772-29.276
	c8.761-6.958,17.181-13.977,25.315-21.097c28.613-25.054,53.847-51.773,74.991-79.403c21.8-28.414,40.822-59.917,56.535-93.63
	c14.511-31.116,26.853-65.104,37.736-103.909c0.008-0.028,0.017-0.058,0.024-0.086c0.81-2.89,2.697-5.292,5.314-6.764
	c2.617-1.471,5.654-1.837,8.551-1.025C409.343,63.562,412.813,69.461,411.426,75.348z"/>
</svg>