<?xml version="1.0" encoding="iso-8859-1"?>
<!-- Uploaded to: SVG Repo, www.svgrepo.com, Generator: SVG Repo Mixer Tools -->
<svg height="39px" width="39px" version="1.1" id="Layer_1" xmlns="http://www.w3.org/2000/svg" xmlns:xlink="http://www.w3.org/1999/xlink" 
	 viewBox="0 0 511.998 511.998" xml:space="preserve">
<path style="fill:#FFD37D;" d="M203.872,91.21c0,35.622,21.448,66.219,52.127,79.629c30.678-13.408,52.127-44.007,52.127-79.629
	s-21.447-66.219-52.127-79.629C225.321,24.99,203.872,55.588,203.872,91.21z"/>
<path style="fill:#FD3B6D;" d="M371.836,207.778H140.162c-6.371,0-11.584,5.213-11.584,11.584v72.545H383.42v-72.545
	C383.42,212.991,378.207,207.778,371.836,207.778z"/>
<path style="fill:#FFD37D;" d="M24.325,268.74c0,127.95,103.724,231.674,231.674,231.674S487.673,396.69,487.673,268.74H24.325z"/>
<g>
	<path style="fill:#000030;" d="M499.257,268.74c0-6.397-5.186-11.584-11.584-11.584h-92.67v-26.21
		c0-12.775-10.393-23.167-23.167-23.167H267.583V103.525c0-6.397-5.186-11.584-11.584-11.584s-11.584,5.187-11.584,11.584v104.253
		H140.162c-12.775,0-23.167,10.393-23.167,23.167v26.21h-92.67c-6.398,0-11.584,5.187-11.584,11.584
		c0,97.126,57.225,181.125,139.722,220.091h-0.717c-6.398,0-11.584,5.186-11.584,11.584c0,6.397,5.186,11.584,11.584,11.584h208.507
		c6.398,0,11.584-5.187,11.584-11.584c0-6.398-5.186-11.584-11.584-11.584h-0.718C442.032,449.866,499.257,365.866,499.257,268.74z
		 M140.162,230.946h231.674v26.21H140.162V230.946z M255.999,488.832c-117.469,0-213.74-92.516-219.789-208.507h439.579
		C469.739,396.315,373.468,488.832,255.999,488.832z"/>
	<path style="fill:#000030;" d="M228.205,152.568c5.115-3.842,6.146-11.104,2.304-16.219c-9.848-13.109-15.053-28.718-15.053-45.138
		c0-28.206,15.755-53.89,40.543-66.795c24.788,12.904,40.543,38.589,40.543,66.795c0,16.421-5.206,32.029-15.053,45.139
		c-3.842,5.114-2.81,12.377,2.304,16.218c2.085,1.566,4.527,2.324,6.949,2.324c3.519,0,6.994-1.597,9.27-4.628
		c12.886-17.153,19.697-37.574,19.697-59.054c0-39.137-23.187-74.559-59.071-90.242c-2.958-1.292-6.32-1.292-9.279,0
		c-35.885,15.684-59.071,51.106-59.071,90.242c0,21.48,6.811,41.901,19.698,59.055C215.829,155.378,223.092,156.412,228.205,152.568
		z"/>
</g>
</svg>