<?xml version="1.0" encoding="iso-8859-1"?>
<!-- Uploaded to: SVG Repo, www.svgrepo.com, Generator: SVG Repo Mixer Tools -->
<svg height="39px" width="39px" version="1.1" id="Layer_1" xmlns="http://www.w3.org/2000/svg" xmlns:xlink="http://www.w3.org/1999/xlink" 
	 viewBox="0 0 512.001 512.001" xml:space="preserve">
<path style="fill:#FC7576;" d="M430.593,36.353l-22.979-22.979c-5.002-5.002-13.118-5.004-18.12-0.002L13.381,389.485
	c-5.007,5.007-5.005,13.124-0.003,18.125l22.979,22.979L430.593,36.353z"/>
<path style="fill:#000030;" d="M508.697,98.507L440.22,30.03l0,0L417.241,7.051c-9.392-9.393-24.675-9.395-34.069-0.003
	L7.057,383.162C2.507,387.714,0,393.764,0,400.202c0,6.436,2.506,12.485,7.055,17.035l22.953,22.953
	c0.009,0.009,0.018,0.018,0.026,0.026l68.477,68.477c2.203,2.203,5.088,3.303,7.974,3.303c2.887,0,5.772-1.101,7.974-3.303
	c4.404-4.404,4.404-11.545,0-15.949l-60.502-60.503l23.379-23.381l60.503,60.503c4.405,4.404,11.544,4.404,15.949,0
	c4.404-4.404,4.404-11.545,0-15.949l-60.502-60.503l23.381-23.382l60.502,60.503c4.405,4.404,11.544,4.404,15.95,0
	c4.404-4.404,4.404-11.545,0-15.949l-60.502-60.503l23.379-23.381l60.503,60.503c4.405,4.404,11.544,4.404,15.95,0
	c4.404-4.404,4.404-11.545,0-15.949l-60.503-60.503l23.381-23.381l60.502,60.503c4.405,4.404,11.544,4.404,15.95,0
	c4.404-4.404,4.404-11.545,0-15.949l-60.503-60.503l23.381-23.381l60.502,60.503c4.405,4.404,11.544,4.404,15.95,0
	c4.404-4.404,4.404-11.545,0-15.949l-60.502-60.503l8.749-8.749l60.503,60.503c4.405,4.404,11.544,4.404,15.95,0
	c4.404-4.404,4.404-11.545,0-15.949l-60.503-60.503l8.75-8.75l60.502,60.503c4.405,4.404,11.544,4.405,15.95,0
	c4.404-4.404,4.404-11.545,0-15.949l-60.503-60.503l8.75-8.749l60.502,60.503c4.405,4.404,11.546,4.405,15.95,0
	c4.404-4.404,4.404-11.545,0-15.949l-60.503-60.503l8.75-8.749l60.502,60.503c4.405,4.404,11.544,4.404,15.95,0
	c4.404-4.404,4.404-11.545,0-15.949l-60.502-60.503l8.749-8.749l60.502,60.503c4.404,4.404,11.545,4.405,15.95,0
	c4.404-4.404,4.404-11.545,0-15.949l-60.502-60.503l8.749-8.75l60.503,60.503c4.405,4.404,11.544,4.404,15.95,0
	c4.404-4.404,4.404-11.545,0-15.949l-60.507-60.506l8.749-8.749l60.503,60.502c4.405,4.404,11.544,4.404,15.95,0
	c4.404-4.404,4.404-11.545,0-15.949l-60.503-60.502l8.75-8.75l60.502,60.503c4.405,4.404,11.544,4.405,15.95,0
	C513.102,110.052,513.102,102.911,508.697,98.507z M399.655,54.646c-0.027,0.027-0.056,0.055-0.083,0.082
	c-0.027,0.028-0.055,0.055-0.082,0.083l-24.534,24.533c-0.027,0.027-0.055,0.054-0.082,0.081c-0.027,0.028-0.055,0.055-0.081,0.082
	l-24.549,24.55c-0.024,0.023-0.045,0.045-0.069,0.067c-0.023,0.023-0.044,0.045-0.068,0.068l-24.592,24.592
	c-0.014,0.014-0.026,0.026-0.039,0.039c-0.014,0.014-0.026,0.027-0.039,0.039l-73.977,73.977c-0.026,0.026-0.053,0.052-0.079,0.078
	c-0.026,0.026-0.052,0.052-0.077,0.079l-24.565,24.564c-0.019,0.018-0.037,0.037-0.056,0.055c-0.019,0.018-0.037,0.037-0.055,0.056
	l-78.53,78.529c-0.024,0.025-0.05,0.05-0.074,0.074c-0.024,0.025-0.05,0.05-0.073,0.074l-39.222,39.224
	c-0.011,0.011-0.023,0.021-0.033,0.033c-0.011,0.011-0.023,0.021-0.033,0.033l-39.226,39.226c-0.024,0.024-0.047,0.047-0.071,0.071
	s-0.047,0.047-0.071,0.072L38.01,416.292l-15.006-15.006c-0.37-0.371-0.448-0.795-0.448-1.085c0-0.292,0.078-0.717,0.451-1.091
	L399.119,22.997c0.299-0.299,0.691-0.448,1.084-0.448c0.395,0,0.788,0.15,1.088,0.45l15.006,15.005L399.655,54.646z"/>
</svg>