<?xml version="1.0" encoding="iso-8859-1"?>
<!-- Uploaded to: SVG Repo, www.svgrepo.com, Generator: SVG Repo Mixer Tools -->
<svg height="39px" width="39px" version="1.1" id="Layer_1" xmlns="http://www.w3.org/2000/svg" xmlns:xlink="http://www.w3.org/1999/xlink" 
	 viewBox="0 0 512.001 512.001" xml:space="preserve">
<path style="fill:#83C7C3;" d="M500.253,11.747c0,0-0.716,47.149-34.275,80.708l-0.141-0.141l-39.684-6.466l-6.595-39.825
	C453.104,12.463,500.253,11.747,500.253,11.747z"/>
<polygon style="fill:#6BADB4;" points="465.978,92.455 203.294,355.137 156.862,308.705 419.557,46.022 465.837,92.314 "/>
<path style="fill:#FFD37D;" d="M231.659,333.671l-53.327-53.327c-3.76-3.76-9.856-3.76-13.616,0l-48.803,48.803
	c0,0-88.285,105.55-95.123,113.721c-9.862,11.787-14.857,30.531,1.478,46.866c16.334,16.334,35.079,11.34,46.866,1.478
	l113.721-95.123l48.803-48.803C235.419,343.527,235.419,337.431,231.659,333.671z M76.553,452.061l-12.756,12.755
	c-2.293,2.293-5.3,3.44-8.306,3.44c-3.007,0-6.012-1.146-8.306-3.44c-4.587-4.587-4.587-12.025,0-16.611l12.756-12.755
	c4.587-4.586,12.026-4.587,16.611,0C81.141,440.037,81.14,447.475,76.553,452.061z"/>
<g>
	<path style="fill:#000030;" d="M59.943,435.45l-12.756,12.755c-4.587,4.587-4.588,12.025,0,16.611c2.294,2.294,5.3,3.44,8.306,3.44
		c3.006,0,6.013-1.148,8.306-3.44l12.756-12.755c4.587-4.587,4.588-12.025,0-16.611C71.968,430.863,64.53,430.863,59.943,435.45z"/>
	<path style="fill:#000030;" d="M511.997,11.924c0.048-3.177-1.193-6.237-3.44-8.484c-2.246-2.246-5.312-3.477-8.484-3.439
		c-2.12,0.033-52.323,1.212-88.827,37.715L180.981,267.982c-7.985-3.933-17.935-2.579-24.571,4.056l-48.803,48.803
		c-0.247,0.246-0.48,0.503-0.704,0.769c0,0-88.284,105.548-95.121,113.72c-13.724,16.403-18.372,42.156,2.181,62.709
		c9.911,9.91,21.028,13.961,31.725,13.961c11.488,0,22.489-4.673,30.982-11.779l113.721-95.123c0.267-0.223,0.524-0.458,0.769-0.704
		l48.804-48.803c6.634-6.635,7.986-16.584,4.056-24.571l230.267-230.265C510.79,64.253,511.965,14.045,511.997,11.924z
		 M174.92,387.415L61.598,482.203c-4.952,4.142-17.887,12.359-31.023-0.775c-13.136-13.137-4.918-26.072-0.775-31.023
		c6.592-7.878,88.882-106.26,94.789-113.323l46.936-46.935l1.852,1.852c0.033,0.034,0.066,0.067,0.099,0.1
		c0.033,0.034,0.067,0.067,0.1,0.1l46.262,46.262c0.022,0.023,0.045,0.046,0.067,0.068c0.023,0.023,0.046,0.045,0.068,0.068
		l1.884,1.884L174.92,387.415z M228.211,313.61l-29.818-29.818L419.552,62.635l29.818,29.818L228.211,313.61z M436.699,46.559
		c17.532-13.547,37.416-19.15,50.244-21.461c-2.279,12.804-7.858,32.627-21.49,50.215L436.699,46.559z"/>
</g>
</svg>