<?xml version="1.0" encoding="iso-8859-1"?>
<!-- Uploaded to: SVG Repo, www.svgrepo.com, Generator: SVG Repo Mixer Tools -->
<svg height="39px" width="39px" version="1.1" id="Layer_1" xmlns="http://www.w3.org/2000/svg" xmlns:xlink="http://www.w3.org/1999/xlink" 
	 viewBox="0 0 512.002 512.002" xml:space="preserve">
<path style="fill:#FC7576;" d="M356.644,211.335H155.36l-53.965,29.527c17.181,69.42,79.879,120.887,154.606,120.887
	s137.427-51.469,154.607-120.887L356.644,211.335z"/>
<path style="fill:#F9545B;" d="M155.36,234.503c43.317,0,60.191,36.329,100.641,36.329s57.324-36.329,100.641-36.329
	c46.859,0,85.111,17.703,115.019,13.931c-77.113,0-105.183-151.299-215.662-78.243c-110.477-73.056-138.549,78.243-215.66,78.243
	C70.249,252.206,108.501,234.503,155.36,234.503z"/>
<g>
	<path style="fill:#000030;" d="M508.609,242.695c4.523-4.523,4.523-11.858,0-16.383c-4.525-4.522-11.857-4.522-16.383,0
		c-6.183,6.183-13.115,9.368-21.395,10.517c-25.153-0.46-45.655-21.652-67.342-44.091c-18.511-19.15-37.653-38.954-61.994-48.442
		c-26.671-10.399-54.704-6.417-85.496,12.188c-30.793-18.607-58.827-22.586-85.496-12.188
		c-24.341,9.488-43.482,29.292-61.994,48.442c-21.687,22.439-42.189,43.631-67.343,44.091c-8.278-1.15-15.211-4.333-21.393-10.517
		c-4.525-4.522-11.857-4.522-16.383,0c-4.523,4.523-4.523,11.858,0,16.383c10.429,10.429,22.062,15.358,34.529,17.066
		c0.548,0.117,1.112,0.184,1.687,0.219c17.004,1.931,35.514-1.888,54.625-5.832c18.3-3.779,39.042-8.061,61.126-8.061
		c18.737,0,32.007,8.208,46.057,16.898c14.724,9.108,31.414,19.43,54.586,19.43s39.862-10.322,54.586-19.43
		c14.05-8.69,27.32-16.898,46.057-16.898c22.083,0,42.826,4.282,61.126,8.061c19.112,3.947,37.624,7.765,54.629,5.832
		c0.572-0.036,1.135-0.103,1.682-0.219C486.546,258.051,498.179,253.122,508.609,242.695z M298.401,243.282
		c-13.851,8.566-25.813,15.966-42.4,15.966s-28.548-7.4-42.399-15.966c-15.431-9.545-32.921-20.363-58.243-20.363
		c-17.848,0-34.369,2.42-49.534,5.282c6.614-6.196,13.008-12.806,19.345-19.361c35.21-36.426,65.617-67.885,124.442-28.987
		c3.874,2.563,8.906,2.563,12.778,0c58.821-38.898,89.23-7.44,124.442,28.987c6.336,6.555,12.73,13.165,19.345,19.361
		c-15.165-2.862-31.686-5.282-49.534-5.282C331.322,222.919,313.832,233.737,298.401,243.282z"/>
	<path style="fill:#000030;" d="M401.074,267.195c-5.663-2.985-12.667-0.818-15.652,4.84
		c-25.427,48.193-75.019,78.132-129.421,78.132s-103.993-29.939-129.421-78.132c-2.985-5.657-9.993-7.825-15.652-4.84
		c-5.657,2.986-7.825,9.993-4.84,15.652c29.45,55.815,86.893,90.487,149.911,90.487s120.461-34.673,149.911-90.487
		C408.898,277.188,406.731,270.181,401.074,267.195z"/>
</g>
</svg>