<?xml version="1.0" encoding="iso-8859-1"?>
<!-- Uploaded to: SVG Repo, www.svgrepo.com, Generator: SVG Repo Mixer Tools -->
<svg version="1.1" id="Layer_1" xmlns="http://www.w3.org/2000/svg" xmlns:xlink="http://www.w3.org/1999/xlink" 
	 viewBox="0 0 512.128 512.128" xml:space="preserve" height="39px" width="39px">
<path style="fill:#FF738E;" d="M319.712,201.216v-59.904H296.48l-40.448-23.104l-40.512,23.168h-23.232v59.904h-81.024
	c-6.4,0-11.584,5.184-11.584,11.584V488.96c0,6.4,5.184,11.584,11.584,11.584h289.6c6.4,0,11.584-5.184,11.584-11.584V212.8
	c0-6.4-5.184-11.584-11.584-11.584H319.712z"/>
<g>
	<rect x="146.016" y="247.488" style="fill:#FFD37D;" width="220.096" height="206.592"/>
	<rect x="215.52" y="11.584" style="fill:#FFD37D;" width="81.088" height="129.728"/>
</g>
<g>
	<path style="fill:#000030;" d="M256.032,47.872c-5.824,0-10.624,4.672-10.624,10.624s4.736,10.624,10.624,10.624
		c5.824,0,10.624-4.672,10.624-10.624S261.856,47.872,256.032,47.872z"/>
	<path style="fill:#000030;" d="M400.864,189.632H331.36v-48.32c0-6.4-5.184-11.584-11.584-11.584h-11.584V11.584
		c0-6.4-5.184-11.584-11.584-11.584h-81.152c-6.4,0-11.584,5.184-11.584,11.584v118.208h-11.584c-6.4,0-11.584,5.184-11.584,11.584
		v48.32h-69.568C98.464,189.568,88.032,200,88.032,212.8v276.096c0,12.8,10.432,23.232,23.232,23.232h289.6
		c12.8,0,23.232-10.432,23.232-23.232V212.8C424.032,200,413.664,189.632,400.864,189.632z M227.04,23.232h57.984v106.624H227.04
		V23.232z M400.864,488.832h-289.6V212.8h81.088c6.4,0,11.584-5.184,11.584-11.584v-48.32h40.512v83.008h-98.432
		c-6.4,0-11.584,5.184-11.584,11.584V454.08c0,6.4,5.184,11.584,11.584,11.584h220.032c6.4,0,11.584-5.184,11.584-11.584v-70.464
		c0-6.4-5.184-11.584-11.584-11.584c-6.4,0-11.584,5.184-11.584,11.584v59.008H157.536V259.072h86.912V407.68
		c0,6.4,5.184,11.584,11.584,11.584c6.4,0,11.584-5.184,11.584-11.584V259.072h86.912V344c0,6.4,5.184,11.584,11.584,11.584
		S377.696,350.4,377.696,344v-96.512c0-6.4-5.184-11.584-11.584-11.584h-98.496v-83.008h40.512v48.32
		c0,6.4,5.184,11.584,11.584,11.584H400.8v276.032H400.864z"/>
</g>
</svg>