<?xml version="1.0" encoding="iso-8859-1"?>
<!-- Uploaded to: SVG Repo, www.svgrepo.com, Generator: SVG Repo Mixer Tools -->
<svg height="39px" width="39px" version="1.1" id="Layer_1" xmlns="http://www.w3.org/2000/svg" xmlns:xlink="http://www.w3.org/1999/xlink" 
	 viewBox="0 0 512 512" xml:space="preserve">
<path style="fill:#6BADB4;" d="M270.055,249.584c7.073-23.609,36.603-122.39,58.159-197.772
	c5.665-19.812-0.652-35.328-20.557-40.661L246.63,183.446L270.055,249.584z"/>
<path style="fill:#9AE1D3;" d="M281.466,281.802l-56.632-26.811c0,0-35.077-116.803-59.726-203.003
	c-5.665-19.812,0.652-35.328,20.557-40.661L281.466,281.802z"/>
<path style="fill:#000030;" d="M424.477,496.69c-1.592-5.94-7.7-9.467-13.637-7.874c-12.715,3.407-26.43-3.394-33.551-15.445
	c10.28-5.979,18.427-15.853,23.5-28.751c6.395-16.261,7.131-35.615,2.071-54.496l0,0c-5.06-18.881-15.374-35.274-29.042-46.16
	c-10.724-8.54-22.573-13.006-34.337-13.14c-4.447-23.016-21.431-42.865-49.025-57.008l-8.69-24.535
	c9.435-31.52,36.753-123.081,57.154-194.422c3.905-13.655,3.043-26.038-2.489-35.81c-5.124-9.045-14.078-15.501-25.894-18.666
	c-5.609-1.505-11.438,1.561-13.377,7.038l-50.53,142.665L196.163,7.596c-1.94-5.477-7.768-8.54-13.377-7.038
	c-11.815,3.166-20.769,9.622-25.892,18.668c-5.533,9.772-6.394,22.155-2.489,35.811c20.47,71.584,48.433,165.281,57.099,194.233
	l-8.64,24.461c-27.528,14.113-44.497,33.926-48.99,56.915c-11.774,0.127-23.635,4.594-34.367,13.141
	c-13.668,10.884-23.982,27.278-29.042,46.16c-5.06,18.881-4.324,38.235,2.071,54.496c6.855,17.431,19.313,29.356,35.078,33.579
	c4.048,1.085,8.16,1.62,12.285,1.62c11.942,0,23.993-4.492,34.882-13.163c11.04-8.792,19.888-21.18,25.55-35.567l3.621,0.97
	c0.965,0.259,1.934,0.382,2.888,0.382c4.916,0,9.416-3.281,10.749-8.255c1.592-5.94-1.933-12.046-7.873-13.637l-3.62-0.97
	c2.29-15.29,0.822-30.443-4.344-43.578c-5.504-13.994-14.625-24.429-26.164-30.19c3.839-21.802,23.911-35.765,41.032-43.87
	c0.003-0.001,0.006-0.003,0.009-0.004c0.004-0.002,0.009-0.003,0.013-0.006l29.846-14.206l30.215,14.304
	c0.002,0.001,0.004,0.001,0.007,0.003c17.157,8.124,37.278,22.116,41.053,43.942c-11.552,5.758-20.683,16.199-26.191,30.204
	c-6.395,16.261-7.131,35.615-2.071,54.495c5.059,18.881,15.373,35.275,29.042,46.16c10.89,8.672,22.939,13.164,34.882,13.163
	c0.687,0,1.374-0.038,2.061-0.067C364.552,499.413,383.653,512,403.922,512c4.201,0,8.459-0.542,12.682-1.674
	C422.544,508.735,426.069,502.63,424.477,496.69z M182.314,414.556c-7.463,27.849-29.869,47.06-48.936,41.954
	c-8.769-2.349-15.913-9.53-20.116-20.22c-4.663-11.859-5.121-26.271-1.285-40.581l0,0c6.651-24.819,25.17-42.778,42.615-42.778
	c1.609,0,3.21,0.154,4.791,0.469c0.954,0.412,1.979,0.689,3.05,0.821c8.073,2.74,14.638,9.691,18.596,19.754
	C185.693,385.834,186.149,400.246,182.314,414.556z M314.057,26.42c1.242,1.069,2.243,2.272,2.995,3.603
	c3.19,5.633,2.01,13.286,0.458,18.714c-15.813,55.295-35.796,122.786-48.354,164.941l-10.713-30.245L314.057,26.42z
	 M234.081,247.034c-6.822-22.773-36.713-122.753-58.264-198.121c-1.552-5.428-2.732-13.081,0.458-18.714
	c0.754-1.332,1.754-2.534,2.994-3.602l82.766,233.671L234.081,247.034z M311.013,414.733c-3.835-14.312-3.378-28.724,1.285-40.581
	c4.203-10.689,11.348-17.87,20.116-20.22c2.076-0.556,4.189-0.824,6.32-0.824c17.444,0,35.967,17.961,42.615,42.778l0,0
	c3.835,14.312,3.378,28.724-1.285,40.581c-4.203,10.689-11.348,17.87-20.116,20.22c-8.769,2.348-18.545-0.296-27.532-7.453
	C322.448,441.298,314.846,429.045,311.013,414.733z"/>
</svg>