<?xml version="1.0" encoding="iso-8859-1"?>
<!-- Uploaded to: SVG Repo, www.svgrepo.com, Generator: SVG Repo Mixer Tools -->
<svg height="39px" width="39px" version="1.1" id="Layer_1" xmlns="http://www.w3.org/2000/svg" xmlns:xlink="http://www.w3.org/1999/xlink" 
	 viewBox="0 0 512 512" xml:space="preserve">
<path style="fill:#C6F2EA;" d="M448.449,114.251l-16.391,73.127c-0.012-0.012-85.993-20.472-85.993-20.472L325.582,80.89
	l73.139-16.368l41.246,8.483L448.449,114.251z"/>
<polygon style="fill:#83C7C3;" points="438.615,11.377 392.095,57.897 455.052,120.854 501.571,74.346 "/>
<path style="fill:#FC7576;" d="M325.582,80.89l106.464,106.476L195.499,457.97l-86.642-53.879L54.979,317.45
	C54.979,317.45,325.559,80.879,325.582,80.89z"/>
<polygon style="fill:#F9545B;" points="202.461,464.931 48.017,310.488 12.745,345.737 167.212,500.203 "/>
<path style="fill:#000030;" d="M508.605,66.364L445.648,3.394C443.475,1.221,440.529,0,437.456,0c-0.001,0-0.001,0-0.001,0
	c-3.072,0-6.018,1.221-8.191,3.393l-46.518,46.518c-1.962,1.962-3.073,4.454-3.333,7.016L322.518,69.66
	c-2.063,0.338-4.057,1.239-5.737,2.709L54.321,301.836c-4.549-3.842-11.363-3.62-15.653,0.666l-35.27,35.255
	c-2.173,2.172-3.395,5.119-3.395,8.192c0,3.072,1.221,6.019,3.393,8.192l154.468,154.467c2.173,2.173,5.121,3.393,8.193,3.393
	c3.073,0,6.02-1.222,8.192-3.396l35.248-35.278c4.282-4.287,4.507-11.095,0.671-15.644l228.974-261.957
	c1.5-1.52,2.58-3.451,3.062-5.609l12.89-57.535c2.552-0.264,5.033-1.374,6.99-3.329l46.52-46.504
	c2.172-2.172,3.394-5.118,3.394-8.191C511.996,71.483,510.777,68.536,508.605,66.364z M166.051,484.031L27.97,345.951l18.885-18.877
	l138.069,138.068L166.051,484.031z M193.775,441.231L70.771,318.227L323.875,96.939l91.16,91.161L193.775,441.231z M424.2,164.503
	l-76.695-76.695l46.376-10.379l40.707,40.707L424.2,164.503z M453.895,104.678l-46.576-46.576l30.137-30.136l46.575,46.586
	L453.895,104.678z"/>
</svg>